# AST/ASF file generated using VICON BodyLanguage
# -----------------------------------------------
:version 1.10
:name VICON
:units
  mass 1.0
  length 0.45
  angle deg
:documentation
   .ast/.asf automatically generated from VICON data using
   VICON BodyBuilder and BodyLanguage model FoxedUp or BRILLIANT.MOD
:root
   order TX TY TZ RX RY RZ
   axis XYZ
   position 0 0 0  
   orientation 0 0 0 
:bonedata
  begin
     id 1 
     name lhipjoint
     direction 0.566809 -0.746272 0.349008 
     length 2.40479 
     axis 0 0 0  XYZ
  end
  begin
     id 2 
     name lfemur
     direction 0.34202 -0.939693 0  
     length 7.1578  
     axis 0 0 20  XYZ
    dof rx ry rz
    limits (-160.0 20.0)
           (-70.0 70.0)
           (-60.0 70.0)
  end
  begin
     id 3 
     name ltibia
     direction 0.34202 -0.939693 0   
     length 7.49137   
     axis 0 0 20   XYZ
    dof rx
    limits (-10.0 170.0)
  end
  begin
     id 4 
     name lfoot
     direction 0.0665746 -0.182912 0.980873   
     length 2.36784   
     axis -90 7.62852e-016 20   XYZ
    dof rx rz
    limits (-45.0 90.0)
           (-70.0 20.0)
  end
  begin
     id 5 
     name ltoes
     direction 1.53601e-011 -4.22058e-011 1   
     length 1.18966   
     axis -90 7.62852e-016 20   XYZ
    dof rx
    limits (-90.0 20.0)
  end
  begin
     id 6 
     name rhipjoint
     direction -0.550236 -0.756381 0.353735   
     length 2.37265  
     axis 0 0 0  XYZ 
  end
  begin
     id 7 
     name rfemur
     direction -0.34202 -0.939693 0   
     length 7.43386   
     axis 0 0 -20   XYZ
    dof rx ry rz
    limits (-160.0 20.0)
           (-70.0 70.0)
           (-70.0 60.0)
  end
  begin
     id 8 
     name rtibia
     direction -0.34202 -0.939693 0   
     length 7.50908   
     axis 0 0 -20   XYZ
    dof rx
    limits (-10.0 170.0)
 end
 begin
     id 9 
     name rfoot
     direction -0.0683029 -0.187661 0.979856   
     length 2.41173  
     axis -90 -7.62852e-016 -20   XYZ
    dof rx rz
    limits (-45.0 90.0)
           (-20.0 70.0)
  end
  begin
     id 10 
     name rtoes
     direction -1.53528e-011 -4.21968e-011 1   
     length 1.21082   
     axis -90 -7.62852e-016 -20   XYZ
    dof rx
    limits (-90.0 20.0)
  end
  begin
     id 11 
     name lowerback
     direction 0.013823 0.995423 -0.0945635   
     length 2.04495   
     axis 0 0 0   XYZ
    dof rx ry rz
    limits (-20.0 45.0)
           (-30.0 30.0)
           (-30.0 30.0)
  end
  begin
     id 12 
     name upperback
     direction 0.0276657 0.9994 -0.020853   
     length 2.05008   
     axis 0 0 0   XYZ
    dof rx ry rz
    limits (-20.0 45.0)
           (-30.0 30.0)
           (-30.0 30.0)
  end
  begin
     id 13 
     name thorax
     direction 0.019782 0.999531 0.0233827   
     length 2.06488   
     axis 0 0 0   XYZ
    dof rx ry rz
    limits (-20.0 45.0)
           (-30.0 30.0)
           (-30.0 30.0)
  end
  begin
     id 14 
     name lowerneck
     direction -0.0308541 0.994709 0.0979874   
     length 1.75553   
     axis 0 0 0   XYZ
    dof rx ry rz
    limits (-20.0 45.0)
           (-30.0 30.0)
           (-30.0 30.0)
  end
  begin
     id 15 
     name upperneck
     direction 0.0588398 0.995804 -0.0700903   
     length 1.76878   
     axis 0 0 0   XYZ
    dof rx ry rz
    limits (-20.0 45.0)
           (-30.0 30.0)
           (-30.0 30.0)
  end
  begin
     id 16
     name head
     direction 0.0209966 0.999159 -0.0352225  
     length 1.77193  
     axis 0 0 0   XYZ
    dof rx ry rz
    limits (-20.0 45.0)
           (-30.0 30.0)
           (-30.0 30.0)
  end
  begin
     id 17 
     name lclavicle
     direction 0.938182 0.335073 -0.0868338  
     length 3.58396  
     axis 0 0 0   XYZ
    dof ry rz
    limits (-20.0 10.0)
           (0.0 20.0)
  end
  begin
     id 18 
     name lhumerus
     direction 1 -4.48971e-011 -1.26313e-017   
     length 4.983   
     axis 180 -30 -90   XYZ
    dof rx ry rz
    limits (-60.0 90.0)
           (-90.0 90.0)
           (-90.0 90.0)
  end
  begin
     id 19
     name lradius
     direction 1 -4.48948e-011 -5.89033e-027   
     length 3.48356   
     axis 180 -30 -90   XYZ
    dof rx
    limits (-10.0 170.0)
  end
  begin
     id 20
     name lwrist
     direction 1 -4.48977e-011 -1.48983e-026   
     length 1.74178   
     axis 9.0955e-015 90 90   XYZ
    dof ry
    limits (-180.0 0.0)
 end
  begin
     id 21 
     name lhand
     direction 1 -4.49046e-011 -2.98066e-026   
     length 0.715259   
     axis 1.90115e-014 90 90   XYZ
    dof rx rz
    limits (-90.0 90.0)
           (-45.0 45.0)
  end
  begin
     id 22 
     name lfingers
     direction 1 -4.48907e-011 -5.95731e-026   
     length 0.576661   
     axis 3.80223e-014 90 90   XYZ
    dof rx
    limits (0.0 90.0)
  end
  begin
     id 23
     name lthumb
     direction 0.707107 -6.34963e-011 0.707107   
     length 0.827973   
     axis -90 45 -3.84942e-014   XYZ
    dof rx rz
    limits (-45.0 45.0)
           (-45.0 45.0)
  end
  begin
     id 24 
     name rclavicle
     direction -0.909637 0.398485 -0.11735   
     length 3.44819  
     axis 0 0 0   XYZ 
    dof ry rz
    limits (-10.0 20.0)
           (-20.0 0.0)
  end
  begin
     id 25 
     name rhumerus
     direction -1 -4.48978e-011 -1.09333e-027  
     length 5.2419   
     axis 180 30 90   XYZ
    dof rx ry rz
    limits (-90.0 60.0)
           (-90.0 90.0)
           (-90.0 90.0)
  end
  begin
     id 26 
     name rradius
     direction -1 -4.48953e-011 -7.61841e-027   
     length 3.44417   
     axis 180 30 90   XYZ
    dof rx
    limits (-10.0 170.0)
  end
  begin
     id 27 
     name rwrist
     direction -1 -4.48977e-011 -1.48983e-026   
     length 1.72209   
     axis 9.0955e-015 -90 -90   XYZ
    dof ry
    limits (-180.0 0.0)
  end
  begin
     id 28
     name rhand
     direction -1 -4.49027e-011 -2.98038e-026   
     length 0.622529   
     axis 1.90115e-014 -90 -90   XYZ
    dof rx rz
    limits (-90.0 90.0)
           (-45.0 45.0)
  end
  begin
     id 29
     name rfingers
     direction -1 -4.48838e-011 -5.95531e-026   
     length 0.501899   
     axis 3.80223e-014 -90 -90   XYZ
    dof rx
    limits (0.0 90.0)
  end
  begin
     id 30
     name rthumb
     direction -0.707107 -6.34937e-011 0.707107   
     length 0.720629   
     axis -90 -45 3.84942e-014   XYZ
    dof rx rz
    limits (-45.0 45.0)
           (-45.0 45.0)
  end
:hierarchy
  begin
    root lhipjoint rhipjoint lowerback
    lhipjoint lfemur
    lfemur ltibia
    ltibia lfoot
    lfoot ltoes
    rhipjoint rfemur
    rfemur rtibia
    rtibia rfoot
    rfoot rtoes
    lowerback upperback
    upperback thorax
    thorax lowerneck lclavicle rclavicle
    lowerneck upperneck
    upperneck head
    lclavicle lhumerus
    lhumerus lradius
    lradius lwrist
    lwrist lhand lthumb
    lhand lfingers
    rclavicle rhumerus
    rhumerus rradius
    rradius rwrist
    rwrist rhand rthumb
    rhand rfingers
  end

#!OML:ASF H:\Terrain\Patient Classification 1\PLAYGROUND\JustinFriday\JustinFriday.ASF
:FULLY-SPECIFIED
:DEGREES
67
root 3.47179 17.6808 13.3473 80.6696 -76.6045 -77.8954
lowerback 11.7111 -0.00996928 3.82593
upperback 3.63616 0.334341 1.9095
thorax -2.74537 0.0926507 -0.211917
lowerneck 1.04647 -12.1189 -11.385
upperneck 1.72096 -16.3806 7.89949
head 1.91864 -8.21461 3.6786
rclavicle -5.1684e-015 -1.11319e-014
rhumerus -26.7464 -5.12172 -75.6971
rradius 39.0409
rwrist -15.2474
rhand -17.5492 -24.8817
rfingers 7.12502
rthumb 8.70534 -54.6822
lclavicle -5.1684e-015 -1.11319e-014
lhumerus -29.978 9.09287 77.454
lradius 35.6708
lwrist 3.7049
lhand -19.4306 -5.48538
lfingers 7.12502
lthumb 6.88952 24.3825
rfemur -9.88214 -2.97297 38.6248
rtibia 24.5754
rfoot -14.575 -8.53498
rtoes 16.4943
lfemur -24.7262 -0.0871702 3.08825
ltibia 67.3245
lfoot -6.28578 -10.6631
ltoes 2.77032
68
root 3.35123 17.6824 13.3831 80.3359 -77.1657 -77.4852
lowerback 11.7701 0.117483 3.34631
upperback 3.39313 0.470786 1.87758
thorax -3.0327 0.160292 0.00503569
lowerneck 1.12432 -12.2093 -12.5559
upperneck 2.19264 -16.5551 8.47413
head 2.20803 -8.30956 3.97391
rclavicle 1.11319e-014 -7.95139e-016
rhumerus -26.742 -4.47698 -75.2448
rradius 39.6983
rwrist -15.9666
rhand -18.2593 -25.0696
rfingers 7.12502
rthumb 8.02007 -54.8974
lclavicle 1.11319e-014 -7.95139e-016
lhumerus -30.2974 9.4932 77.659
lradius 35.2901
lwrist 3.23514
lhand -19.5778 -5.05507
lfingers 7.12502
lthumb 6.74743 24.8174
rfemur -9.6464 -3.52509 37.8615
rtibia 24.9186
rfoot -15.2126 -7.97798
rtoes 16.3973
lfemur -25.5276 -0.104762 2.49022
ltibia 66.5762
lfoot -6.49846 -10.2213
ltoes 4.89584
69
root 3.24096 17.6319 13.4003 81.3139 -76.9963 -78.6167
lowerback 11.8012 0.212265 3.86153
upperback 3.40713 0.648745 1.62677
thorax -3.02027 0.248317 -0.57056
lowerneck 1.32249 -12.1411 -13.1845
upperneck 2.30378 -16.5396 9.45443
head 2.34448 -8.3058 4.3498
rclavicle 3.97569e-015 4.77083e-015
rhumerus -26.5794 -4.51314 -75.5042
rradius 40.3756
rwrist -16.5586
rhand -18.26 -24.9563
rfingers 7.12502
rthumb 8.0194 -54.7842
lclavicle 3.97569e-015 4.77083e-015
lhumerus -30.1479 9.43222 77.1964
lradius 34.8633
lwrist 3.19459
lhand -18.8417 -5.01891
lfingers 7.12502
lthumb 7.45798 24.8296
rfemur -9.1349 -3.25338 38.0348
rtibia 25.1122
rfoot -15.6971 -7.94331
rtoes 16.8994
lfemur -26.0415 0.519059 2.79027
ltibia 65.6937
lfoot -6.88789 -10.0829
ltoes 4.74635
70
root 3.1208 17.5981 13.4083 82.2174 -76.4369 -79.6285
lowerback 11.8027 0.31481 4.39473
upperback 3.37899 0.848395 1.71798
thorax -3.03452 0.343957 -0.802867
lowerneck 1.67009 -12.1299 -13.4638
upperneck 2.0265 -16.5656 9.72548
head 2.25545 -8.32656 4.49659
rclavicle -2.38542e-015 4.77083e-015
rhumerus -26.4741 -4.67824 -75.3588
rradius 40.988
rwrist -16.7989
rhand -17.9393 -24.6001
rfingers 7.12502
rthumb 8.32893 -54.4159
lclavicle -2.38542e-015 4.77083e-015
lhumerus -30.0379 9.70597 77.0126
lradius 34.3599
lwrist 3.14695
lhand -18.2862 -5.33624
lfingers 7.12502
lthumb 7.9941 24.4926
rfemur -8.61766 -2.62533 38.6748
rtibia 25.3077
rfoot -16.1866 -8.47081
rtoes 17.2311
lfemur -26.7072 0.920159 3.63807
ltibia 64.7911
lfoot -7.56613 -9.75484
ltoes 5.47104
71
root 2.98992 17.5797 13.4222 82.0518 -76.0747 -79.4102
lowerback 11.6234 0.314935 4.45574
upperback 3.25657 0.862726 2.04181
thorax -3.06783 0.348637 -0.500827
lowerneck 1.92421 -12.1637 -14.2648
upperneck 1.99958 -16.6493 9.78143
head 2.28636 -8.37882 4.63147
rclavicle -7.95139e-016 3.18055e-015
rhumerus -26.3692 -4.3672 -74.9222
rradius 41.56
rwrist -16.8645
rhand -18.224 -24.6385
rfingers 7.12502
rthumb 8.05419 -54.465
lclavicle -7.95139e-016 3.18055e-015
lhumerus -30.2771 10.3923 77.2208
lradius 33.9805
lwrist 3.62081
lhand -18.7037 -5.59382
lfingers 7.12502
lthumb 7.59116 24.2499
rfemur -8.25647 -3.17482 38.9679
rtibia 25.4724
rfoot -16.8327 -8.05711
rtoes 18.0345
lfemur -27.4994 1.08952 4.15875
ltibia 63.7851
lfoot -8.50592 -9.03413
ltoes 5.75113
72
root 2.86345 17.5518 13.435 81.8325 -75.7668 -79.2969
lowerback 11.4332 0.23361 4.8846
upperback 3.33419 0.784027 1.98339
thorax -2.87714 0.31238 -0.789455
lowerneck 2.00887 -12.2128 -14.6899
upperneck 1.96139 -16.7365 9.98802
head 2.32478 -8.42592 4.74796
rclavicle -1.98785e-015 -1.59028e-014
rhumerus -26.0604 -4.07904 -75.1484
rradius 42.1492
rwrist -17.1278
rhand -18.6532 -25.0806
rfingers 7.12502
rthumb 7.63991 -54.9226
lclavicle -1.98785e-015 -1.59028e-014
lhumerus -30.2155 11.0773 76.6919
lradius 33.5005
lwrist 2.95693
lhand -17.8243 -5.72958
lfingers 7.12502
lthumb 8.43993 24.0818
rfemur -7.67031 -3.35842 39.2316
rtibia 25.4657
rfoot -17.2884 -8.06938
rtoes 18.0397
lfemur -28.0917 1.37716 4.58373
ltibia 62.6819
lfoot -9.31744 -8.21335
ltoes 2.61727
73
root 2.74409 17.5312 13.4569 81.8221 -75.7066 -79.4365
lowerback 11.5533 0.254844 5.11433
upperback 3.33278 0.8422 1.85437
thorax -2.93519 0.339881 -1.06132
lowerneck 2.23006 -12.2874 -14.6168
upperneck 1.66076 -16.843 9.84956
head 2.19414 -8.48176 4.71539
rclavicle 3.18055e-015 -2.06736e-014
rhumerus -25.9319 -3.61405 -75.2791
rradius 42.79
rwrist -17.8251
rhand -19.1009 -25.2841
rfingers 7.12502
rthumb 7.20776 -55.1414
lclavicle 3.18055e-015 -2.06736e-014
lhumerus -30.2346 10.9287 76.4964
lradius 33.2969
lwrist 3.19459
lhand -17.5207 -5.29946
lfingers 7.12502
lthumb 8.73291 24.4999
rfemur -7.03194 -2.98708 39.2645
rtibia 25.4444
rfoot -17.5467 -8.78739
rtoes 16.5186
lfemur -28.5802 1.68715 4.70189
ltibia 61.423
lfoot -10.007 -7.35693
ltoes -1.54499
74
root 2.61983 17.5215 13.4715 82.0899 -75.8872 -79.7299
lowerback 11.6087 0.351953 4.93175
upperback 3.2558 0.958638 1.7704
thorax -3.04208 0.396873 -1.06344
lowerneck 2.58569 -12.285 -14.5648
upperneck 1.26095 -16.8614 9.71367
head 2.00393 -8.49574 4.70706
rclavicle 2.78299e-015 -2.06736e-014
rhumerus -25.7341 -3.30659 -75.2535
rradius 43.2359
rwrist -18.2524
rhand -19.3892 -25.3104
rfingers 7.12502
rthumb 6.9295 -55.177
lclavicle 2.78299e-015 -2.06736e-014
lhumerus -30.4652 12.2192 76.0935
lradius 33.2885
lwrist 2.05507
lhand -16.9637 -5.01496
lfingers 7.12502
lthumb 9.27034 24.7612
rfemur -6.484 -2.38862 39.1132
rtibia 25.4043
rfoot -17.8969 -9.67035
rtoes 15.3455
lfemur -29.0502 2.00427 4.58267
ltibia 59.9976
lfoot -10.0341 -6.667
ltoes -1.14078
75
root 2.49097 17.5151 13.4914 82.1853 -76.1946 -79.8163
lowerback 11.4647 0.420461 4.75596
upperback 3.23855 1.02018 1.6197
thorax -2.97894 0.431535 -1.12889
lowerneck 2.70378 -12.3522 -14.7809
upperneck 1.28792 -16.9736 9.74835
head 2.02745 -8.55558 4.7441
rclavicle 5.56597e-015 -6.36111e-015
rhumerus -25.4496 -3.3059 -75.2457
rradius 43.5045
rwrist -18.0084
rhand -19.3441 -25.6147
rfingers 7.12502
rthumb 6.97303 -55.4799
lclavicle 5.56597e-015 -6.36111e-015
lhumerus -30.5813 12.7822 75.9031
lradius 33.1548
lwrist 1.67736
lhand -16.8027 -4.82163
lfingers 7.12502
lthumb 9.42574 24.9476
rfemur -5.94583 -2.29935 38.7367
rtibia 25.3532
rfoot -18.3298 -9.87785
rtoes 14.4494
lfemur -29.4364 2.12832 4.28783
ltibia 58.3887
lfoot -9.09031 -5.95498
ltoes 4.00746
76
root 2.36336 17.5124 13.515 82.4115 -76.3712 -79.9993
lowerback 11.1876 0.476729 4.98223
upperback 3.29728 1.09295 1.31937
thorax -2.75035 0.475346 -1.57405
lowerneck 2.62772 -12.5671 -14.8837
upperneck 1.49014 -17.2698 9.94953
head 2.16248 -8.70366 4.77901
rclavicle 7.15625e-015 3.18055e-014
rhumerus -25.2598 -3.18438 -75.3988
rradius 43.9183
rwrist -17.9341
rhand -18.727 -25.8622
rfingers 7.12502
rthumb 7.5687 -55.7068
lclavicle 7.15625e-015 3.18055e-014
lhumerus -30.3678 12.7873 75.6372
lradius 32.8056
lwrist 1.62166
lhand -16.7477 -4.43091
lfingers 7.12502
lthumb 9.4788 25.3359
rfemur -5.38773 -2.5323 38.4308
rtibia 25.1396
rfoot -18.5613 -9.73717
rtoes 12.8817
lfemur -29.8636 2.12417 4.14393
ltibia 56.7394
lfoot -9.40395 -5.14172
ltoes 4.00844
77
root 2.2412 17.5105 13.5358 82.0732 -76.7933 -79.4817
lowerback 11.1315 0.619991 4.55272
upperback 3.18268 1.24096 1.23067
thorax -2.83905 0.549533 -1.44507
lowerneck 2.81006 -12.7112 -15.0315
upperneck 1.49666 -17.4932 10.008
head 2.18054 -8.82011 4.80966
rclavicle -1.03368e-014 -2.70347e-014
rhumerus -25.1678 -2.83474 -75.0807
rradius 44.3828
rwrist -18.1867
rhand -17.5555 -26.0543
rfingers 7.12502
rthumb 8.69934 -55.8551
lclavicle -1.03368e-014 -2.70347e-014
lhumerus -30.3 12.8256 75.7868
lradius 32.4125
lwrist 1.58797
lhand -16.6621 -4.19153
lfingers 7.12502
lthumb 9.56138 25.5715
rfemur -4.95416 -2.12472 37.9561
rtibia 24.882
rfoot -18.5852 -10.4505
rtoes 11.5553
lfemur -30.4466 2.06528 3.66869
ltibia 54.9616
lfoot -9.89921 -4.24996
ltoes 1.50969
78
root 2.1185 17.4678 13.5507 81.7958 -75.7247 -79.4666
lowerback 11.3629 0.526701 5.5541
upperback 3.25228 1.23837 1.49885
thorax -2.87363 0.540198 -1.72962
lowerneck 2.69213 -12.7641 -14.7614
upperneck 1.71263 -17.5495 9.89003
head 2.23671 -8.84601 4.71952
rclavicle 2.0276e-014 2.22639e-014
rhumerus -24.7779 -2.61203 -75.1182
rradius 44.6038
rwrist -18.0078
rhand -17.4408 -26.4067
rfingers 7.12502
rthumb 8.80999 -56.2028
lclavicle 2.0276e-014 2.22639e-014
lhumerus -30.3271 12.9261 75.7508
lradius 32.2545
lwrist 1.85661
lhand -16.6549 -4.108
lfingers 7.12502
lthumb 9.56835 25.6547
rfemur -4.05564 -1.48699 39.1807
rtibia 24.5601
rfoot -18.6842 -11.5731
rtoes 11.0941
lfemur -30.78 2.4232 4.92314
ltibia 53.2133
lfoot -9.64714 -3.97605
ltoes 1.25523
79
root 1.9921 17.4497 13.5732 81.6182 -75.6858 -79.372
lowerback 11.4343 0.505646 5.56181
upperback 3.24849 1.21673 1.52213
thorax -2.91854 0.527827 -1.70793
lowerneck 2.60252 -12.8007 -14.4512
upperneck 1.95769 -17.5899 9.77023
head 2.29147 -8.86463 4.6261
rclavicle 7.55382e-015 -1.59028e-014
rhumerus -24.5634 -2.09667 -75.1362
rradius 44.8156
rwrist -17.8549
rhand -18.1225 -26.352
rfingers 7.12502
rthumb 8.15213 -56.1747
lclavicle 7.55382e-015 -1.59028e-014
lhumerus -30.4638 13.2325 75.7004
lradius 32.0776
lwrist 1.88329
lhand -16.6393 -3.97245
lfingers 7.12502
lthumb 9.58341 25.7896
rfemur -3.34888 -1.63023 39.1172
rtibia 24.26
rfoot -19.0878 -11.348
rtoes 12.1264
lfemur -31.035 2.60464 4.96968
ltibia 51.2895
lfoot -9.24971 -3.51954
ltoes 2.91725
80
root 1.86264 17.4501 13.5961 81.2772 -76.1301 -78.9249
lowerback 11.2821 0.592843 5.11124
upperback 3.22834 1.27423 1.44296
thorax -2.86237 0.560988 -1.54352
lowerneck 2.71443 -12.8695 -14.0399
upperneck 1.93104 -17.6854 9.67938
head 2.23323 -8.91263 4.54839
rclavicle -1.07344e-014 -5.40694e-014
rhumerus -24.3965 -1.89566 -74.9781
rradius 44.9733
rwrist -17.6922
rhand -18.3238 -25.6558
rfingers 7.12502
rthumb 7.9578 -55.486
lclavicle -1.07344e-014 -5.40694e-014
lhumerus -30.4435 13.3902 75.862
lradius 31.7423
lwrist 1.87545
lhand -16.9473 -3.93211
lfingers 7.12502
lthumb 9.28616 25.8434
rfemur -2.78704 -2.03653 38.4642
rtibia 23.9276
rfoot -19.5703 -10.6132
rtoes 13.9477
lfemur -31.3599 2.57783 4.46489
ltibia 49.2768
lfoot -9.01469 -2.89874
ltoes 4.48497
